<?xml version="1.0" encoding="utf-8" standalone="no"?>
<!DOCTYPE svg PUBLIC "-//W3C//DTD SVG 1.1//EN"
  "http://www.w3.org/Graphics/SVG/1.1/DTD/svg11.dtd">
<svg xmlns:xlink="http://www.w3.org/1999/xlink" width="1597.76875pt" height="1336.760521pt" viewBox="0 0 1597.76875 1336.760521" xmlns="http://www.w3.org/2000/svg" version="1.1">
 <metadata>
  <rdf:RDF xmlns:dc="http://purl.org/dc/elements/1.1/" xmlns:cc="http://creativecommons.org/ns#" xmlns:rdf="http://www.w3.org/1999/02/22-rdf-syntax-ns#">
   <cc:Work>
    <dc:type rdf:resource="http://purl.org/dc/dcmitype/StillImage"/>
    <dc:date>2023-11-28T16:43:29.523244</dc:date>
    <dc:format>image/svg+xml</dc:format>
    <dc:creator>
     <cc:Agent>
      <dc:title>Matplotlib v3.7.1, https://matplotlib.org/</dc:title>
     </cc:Agent>
    </dc:creator>
   </cc:Work>
  </rdf:RDF>
 </metadata>
 <defs>
  <style type="text/css">*{stroke-linejoin: round; stroke-linecap: butt}</style>
 </defs>
 <g id="figure_1">
  <g id="patch_1">
   <path d="M 0 1336.760521 
L 1597.76875 1336.760521 
L 1597.76875 0 
L 0 0 
z
" style="fill: #ffffff"/>
  </g>
  <g id="axes_1">
   <g id="patch_2">
    <path d="M 800.00461 463.742215 
C 798.137319 463.742215 796.270105 463.766269 794.403434 463.814369 
C 792.536762 463.86247 790.670788 463.934614 788.805975 464.030784 
L 800.00461 681.182215 
z
" style="fill: #005019"/>
   </g>
   <g id="patch_3">
    <path d="M 787.68574 420.557215 
C 772.416642 421.344652 757.273092 423.740377 742.506566 427.704608 
C 727.74004 431.668838 713.43273 437.179508 699.822225 444.145106 
L 798.884375 637.708646 
z
" style="fill: #00229b"/>
   </g>
   <g id="patch_4">
    <path d="M 721.951382 481.581807 
C 718.026378 483.590549 714.163381 485.718212 710.367749 487.961842 
C 706.572117 490.205473 702.845607 492.564034 699.193386 495.034254 
L 821.013531 675.145347 
z
" style="fill: #0055ff"/>
   </g>
   <g id="patch_5">
    <path d="M 677.06423 457.597553 
C 658.531739 470.13221 642.044406 485.452452 628.185287 503.016497 
C 614.326168 520.580542 603.260581 540.178877 595.379848 561.118431 
L 798.884375 637.708646 
z
" style="fill: #00ceff"/>
   </g>
   <g id="patch_6">
    <path d="M 638.850475 562.34755 
C 630.36299 584.899276 625.682902 608.705785 625.001867 632.79217 
C 624.320832 656.878555 627.648274 680.911475 634.847931 703.90675 
L 842.355002 638.937765 
z
" style="fill: #00ffeb"/>
   </g>
   <g id="patch_7">
    <path d="M 591.377304 702.677631 
C 592.384707 705.895216 593.46681 709.088933 594.622737 712.256194 
C 595.778664 715.423455 597.008102 718.563402 598.310052 721.673488 
L 798.884375 637.708646 
z
" style="fill: #00faa3"/>
   </g>
   <g id="patch_8">
    <path d="M 638.38273 704.780097 
C 638.452832 704.947556 638.523143 705.114926 638.593664 705.282209 
C 638.664185 705.449491 638.734916 705.616686 638.805856 705.783791 
L 838.957053 620.815256 
z
" style="fill: #00fd34"/>
   </g>
   <g id="patch_9">
    <path d="M 598.733178 722.677182 
C 600.841348 727.64317 603.133607 732.52898 605.605193 737.324466 
C 608.07678 742.119952 610.725984 746.821793 613.547303 751.420226 
L 798.884375 637.708646 
z
" style="fill: #40e100"/>
   </g>
   <g id="patch_10">
    <path d="M 650.368462 728.281332 
C 650.775337 728.944493 651.185769 729.605465 651.599739 730.26422 
C 652.013709 730.922975 652.431212 731.579503 652.852229 732.233776 
L 835.705534 614.569753 
z
" style="fill: #70e200"/>
   </g>
   <g id="patch_11">
    <path d="M 616.03107 755.37267 
C 624.431328 768.426914 634.205436 780.54414 645.186103 791.516952 
C 656.16677 802.489763 668.290988 812.255197 681.35124 820.646111 
L 798.884375 637.708646 
z
" style="fill: #8dff14"/>
   </g>
   <g id="patch_12">
    <path d="M 704.463777 783.808402 
C 705.118351 784.228951 705.775178 784.645984 706.434229 785.059482 
C 707.09328 785.472981 707.754546 785.882939 708.417997 786.289339 
L 821.996911 600.870937 
z
" style="fill: #bfff38"/>
   </g>
   <g id="patch_13">
    <path d="M 685.305461 823.127048 
C 701.250245 832.894101 718.388491 840.563761 736.295557 845.945995 
C 754.202623 851.328229 772.72938 854.378213 791.416784 855.020378 
L 798.884375 637.708646 
z
" style="fill: #f1ff0c"/>
   </g>
   <g id="patch_14">
    <path d="M 791.416784 855.020378 
C 836.690953 856.576156 881.339111 843.94526 919.088519 818.902237 
C 956.837926 793.859214 985.833888 757.634474 1002.002681 715.317327 
L 798.884375 637.708646 
z
" style="fill: #ffe400"/>
   </g>
   <g id="patch_15">
    <path d="M 1002.002681 715.317327 
C 1004.057883 709.938431 1005.898611 704.480018 1007.520512 698.955001 
C 1009.142413 693.429983 1010.544208 687.842719 1011.72258 682.206424 
L 798.884375 637.708646 
z
" style="fill: #ffc908"/>
   </g>
   <g id="patch_16">
    <path d="M 1011.72258 682.206424 
C 1016.445339 659.6169 1017.541827 636.418864 1014.970813 613.48459 
C 1012.399799 590.550315 1006.193918 568.170901 996.586517 547.187839 
L 798.884375 637.708646 
z
" style="fill: #ff9109"/>
   </g>
   <g id="patch_17">
    <path d="M 996.586517 547.187839 
C 995.906331 545.702277 995.209423 544.22443 994.495925 542.754577 
C 993.782427 541.284725 993.052384 539.822961 992.305936 538.369564 
L 798.884375 637.708646 
z
" style="fill: #ff3900"/>
   </g>
   <g id="patch_18">
    <path d="M 992.305936 538.369564 
C 981.798378 517.910462 968.110969 499.247471 951.754925 483.077638 
C 935.398881 466.907806 916.580396 453.434981 896.002327 443.162361 
L 798.884375 637.708646 
z
" style="fill: #ff0512"/>
   </g>
   <g id="patch_19">
    <path d="M 896.002327 443.162361 
C 895.863104 443.092861 895.723808 443.02351 895.584437 442.954309 
C 895.445066 442.885109 895.30562 442.816057 895.166101 442.747156 
L 798.884375 637.708646 
z
" style="fill: #ff00d5"/>
   </g>
   <g id="patch_20">
    <path d="M 876.245308 481.903378 
C 875.68723 481.627771 875.127971 481.354562 874.567547 481.083758 
C 874.007123 480.812953 873.445539 480.544557 872.88281 480.278575 
L 779.963582 676.864868 
z
" style="fill: #c11fff"/>
   </g>
   <g id="patch_21">
    <path d="M 891.803603 441.122353 
C 881.011897 436.021504 869.818472 431.81793 858.336835 428.554257 
C 846.855197 425.290584 835.124289 422.97788 823.263068 421.6396 
L 798.884375 637.708646 
z
" style="fill: #c256f7"/>
   </g>
   <g id="patch_22">
    <path d="M 818.805036 464.898496 
C 818.109225 464.819989 817.413039 464.744843 816.716502 464.673062 
C 816.019965 464.60128 815.323086 464.532864 814.625888 464.467815 
L 794.426343 680.967542 
z
" style="fill: #ee92f1"/>
   </g>
   <g id="patch_23">
    <path d="M 819.08392 421.208919 
C 815.726896 420.895707 812.363042 420.660617 808.995086 420.503842 
C 805.62713 420.347066 802.255982 420.268646 798.884379 420.268646 
L 798.884375 637.708646 
z
" style="fill: #f6c5f7"/>
   </g>
   <g id="patch_24">
    <path d="M 798.884375 822.532646 
C 847.900273 822.532646 894.915205 803.058424 929.574679 768.39895 
C 964.234152 733.739476 983.708375 686.724544 983.708375 637.708646 
C 983.708375 588.692748 964.234152 541.677816 929.574679 507.018342 
C 894.915205 472.358869 847.900273 452.884646 798.884375 452.884646 
C 749.868477 452.884646 702.853545 472.358869 668.194071 507.018342 
C 633.534598 541.677816 614.060375 588.692748 614.060375 637.708646 
C 614.060375 686.724544 633.534598 733.739476 668.194071 768.39895 
C 702.853545 803.058424 749.868477 822.532646 798.884375 822.532646 
z
" clip-path="url(#p9e063cdff1)" style="stroke: #000000; stroke-linejoin: miter"/>
   </g>
   <g id="patch_25">
    <path d="M 798.884375 811.660646 
C 845.016985 811.660646 889.266333 793.331966 921.887014 760.711285 
C 954.507695 728.090604 972.836375 683.841256 972.836375 637.708646 
C 972.836375 591.576037 954.507695 547.326689 921.887014 514.706007 
C 889.266333 482.085326 845.016985 463.756646 798.884375 463.756646 
C 752.751765 463.756646 708.502417 482.085326 675.881736 514.706007 
C 643.261055 547.326689 624.932375 591.576037 624.932375 637.708646 
C 624.932375 683.841256 643.261055 728.090604 675.881736 760.711285 
C 708.502417 793.331966 752.751765 811.660646 798.884375 811.660646 
z
" clip-path="url(#p9e063cdff1)" style="fill: #ffffff; stroke: #ffffff; stroke-linejoin: miter"/>
   </g>
   <g id="matplotlib.axis_1"/>
   <g id="matplotlib.axis_2"/>
   <g id="patch_26">
    <path d="M 433.88178 351.074694 
Q 583.675247 402.835096 739.421952 427.22273 
" style="fill: none; stroke: #808080; stroke-linecap: round"/>
    <path d="M 732.137061 422.033283 
L 739.421952 427.22273 
L 730.89946 429.936974 
" style="fill: none; stroke: #808080; stroke-linecap: round"/>
   </g>
   <g id="text_1">
    <text style="font: 700 20px 'DejaVu Sans', 'Bitstream Vera Sans', 'Computer Modern Sans Serif', 'Lucida Grande', 'Verdana', 'Geneva', 'Lucid', 'Arial', 'Helvetica', 'Avant Garde', sans-serif; text-anchor: end" x="441.426509" y="343.702992" transform="rotate(-0 441.426509 343.702992)">pUC_ori</text>
   </g>
   <g id="patch_27">
    <path d="M 349.023563 435.73342 
Q 484.537262 481.378007 625.098559 502.552733 
" style="fill: none; stroke: #808080; stroke-linecap: round"/>
    <path d="M 617.78367 497.405656 
L 625.098559 502.552733 
L 616.591964 505.316398 
" style="fill: none; stroke: #808080; stroke-linecap: round"/>
   </g>
   <g id="text_2">
    <text style="font: 700 20px 'DejaVu Sans', 'Bitstream Vera Sans', 'Computer Modern Sans Serif', 'Lucida Grande', 'Verdana', 'Geneva', 'Lucid', 'Arial', 'Helvetica', 'Avant Garde', sans-serif; text-anchor: end" x="441.426509" y="428.935815" transform="rotate(-0 441.426509 428.935815)">Resistance : Ampicillin</text>
   </g>
   <g id="patch_28">
    <path d="M 445.390458 753.140996 
Q 520.587255 739.010909 591.693478 713.316883 
" style="fill: none; stroke: #808080; stroke-linecap: round"/>
    <path d="M 582.810251 712.273677 
L 591.693478 713.316883 
L 585.528977 719.797541 
" style="fill: none; stroke: #808080; stroke-linecap: round"/>
   </g>
   <g id="text_3">
    <text style="font: 700 20px 'DejaVu Sans', 'Bitstream Vera Sans', 'Computer Modern Sans Serif', 'Lucida Grande', 'Verdana', 'Geneva', 'Lucid', 'Arial', 'Helvetica', 'Avant Garde', sans-serif; text-anchor: end" x="441.426509" y="764.439478" transform="rotate(-0 441.426509 764.439478)">3`ITR</text>
   </g>
   <g id="patch_29">
    <path d="M 376.176234 804.393408 
Q 492.336701 780.070644 602.691141 738.425532 
" style="fill: none; stroke: #808080; stroke-linecap: round"/>
    <path d="M 593.794084 737.507719 
L 602.691141 738.425532 
L 596.618657 744.992489 
" style="fill: none; stroke: #808080; stroke-linecap: round"/>
   </g>
   <g id="text_4">
    <text style="font: 700 20px 'DejaVu Sans', 'Bitstream Vera Sans', 'Computer Modern Sans Serif', 'Lucida Grande', 'Verdana', 'Geneva', 'Lucid', 'Arial', 'Helvetica', 'Avant Garde', sans-serif; text-anchor: end" x="441.426509" y="821.997913" transform="rotate(-0 441.426509 821.997913)">2nd_polyA_signal : bGH</text>
   </g>
   <g id="patch_30">
    <path d="M 377.075741 927.390177 
Q 516.180476 871.917451 642.544264 793.164784 
" style="fill: none; stroke: #808080; stroke-linecap: round"/>
    <path d="M 633.639204 794.001387 
L 642.544264 793.164784 
L 637.87051 800.790794 
" style="fill: none; stroke: #808080; stroke-linecap: round"/>
   </g>
   <g id="text_5">
    <text style="font: 700 20px 'DejaVu Sans', 'Bitstream Vera Sans', 'Computer Modern Sans Serif', 'Lucida Grande', 'Verdana', 'Geneva', 'Lucid', 'Arial', 'Helvetica', 'Avant Garde', sans-serif; text-anchor: end" x="441.426509" y="945.325257" transform="rotate(-0 441.426509 945.325257)">Enhancer : WPRE</text>
   </g>
   <g id="patch_31">
    <path d="M 340.402688 1067.412603 
Q 547.66061 975.646199 733.726852 847.713138 
" style="fill: none; stroke: #808080; stroke-linecap: round"/>
    <path d="M 724.868457 848.949605 
L 733.726852 847.713138 
L 729.400989 855.541733 
" style="fill: none; stroke: #808080; stroke-linecap: round"/>
   </g>
   <g id="text_6">
    <text style="font: 700 20px 'DejaVu Sans', 'Bitstream Vera Sans', 'Computer Modern Sans Serif', 'Lucida Grande', 'Verdana', 'Geneva', 'Lucid', 'Arial', 'Helvetica', 'Avant Garde', sans-serif; text-anchor: end" x="441.426509" y="1085.418946" transform="rotate(-0 441.426509 1085.418946)">Fluorescent_tag : EGFP</text>
   </g>
   <g id="patch_32">
    <path d="M 1268.441172 981.887117 
Q 1102.375488 884.554706 922.025136 819.953115 
" style="fill: none; stroke: #808080; stroke-linecap: round"/>
    <path d="M 928.207668 826.416574 
L 922.025136 819.953115 
L 930.905422 818.885165 
" style="fill: none; stroke: #808080; stroke-linecap: round"/>
   </g>
   <g id="text_7">
    <text style="font: 700 20px 'DejaVu Sans', 'Bitstream Vera Sans', 'Computer Modern Sans Serif', 'Lucida Grande', 'Verdana', 'Geneva', 'Lucid', 'Arial', 'Helvetica', 'Avant Garde', sans-serif; text-anchor: start" x="1177.035641" y="1000.095828" transform="rotate(-0 1177.035641 1000.095828)">2nd_promoter : CAG</text>
   </g>
   <g id="patch_33">
    <path d="M 1262.36497 733.386038 
Q 1137.522969 705.855634 1010.633173 699.118983 
" style="fill: none; stroke: #808080; stroke-linecap: round"/>
    <path d="M 1018.409859 703.537485 
L 1010.633173 699.118983 
L 1018.833986 695.548736 
" style="fill: none; stroke: #808080; stroke-linecap: round"/>
   </g>
   <g id="text_8">
    <text style="font: 700 20px 'DejaVu Sans', 'Bitstream Vera Sans', 'Computer Modern Sans Serif', 'Lucida Grande', 'Verdana', 'Geneva', 'Lucid', 'Arial', 'Helvetica', 'Avant Garde', sans-serif; text-anchor: start" x="1177.035641" y="751.014402" transform="rotate(-0 1177.035641 751.014402)">PolyA_signal : SV40_late</text>
   </g>
   <g id="patch_34">
    <path d="M 1173.036637 593.162208 
Q 1094.484968 597.914137 1018.02833 612.884234 
" style="fill: none; stroke: #808080; stroke-linecap: round"/>
    <path d="M 1026.647854 615.272497 
L 1018.02833 612.884234 
L 1025.110654 607.421573 
" style="fill: none; stroke: #808080; stroke-linecap: round"/>
   </g>
   <g id="text_9">
    <text style="font: 700 20px 'DejaVu Sans', 'Bitstream Vera Sans', 'Computer Modern Sans Serif', 'Lucida Grande', 'Verdana', 'Geneva', 'Lucid', 'Arial', 'Helvetica', 'Avant Garde', sans-serif; text-anchor: start" x="1177.035641" y="596.52775" transform="rotate(-0 1177.035641 596.52775)">SEQ2 : SMN2</text>
   </g>
   <g id="patch_35">
    <path d="M 1204.770086 469.263748 
Q 1097.793036 497.211846 997.346334 541.496343 
" style="fill: none; stroke: #808080; stroke-linecap: round"/>
    <path d="M 1006.280128 541.929143 
L 997.346334 541.496343 
L 1003.05285 534.608987 
" style="fill: none; stroke: #808080; stroke-linecap: round"/>
   </g>
   <g id="text_10">
    <text style="font: 700 20px 'DejaVu Sans', 'Bitstream Vera Sans', 'Computer Modern Sans Serif', 'Lucida Grande', 'Verdana', 'Geneva', 'Lucid', 'Arial', 'Helvetica', 'Avant Garde', sans-serif; text-anchor: start" x="1177.035641" y="462.043619" transform="rotate(-0 1177.035641 462.043619)">Linker_1 : T2A</text>
   </g>
   <g id="patch_36">
    <path d="M 1220.658148 335.404838 
Q 1080.544275 396.595172 954.342198 481.338903 
" style="fill: none; stroke: #808080; stroke-linecap: round"/>
    <path d="M 963.213654 480.199924 
L 954.342198 481.338903 
L 958.753889 473.558351 
" style="fill: none; stroke: #808080; stroke-linecap: round"/>
   </g>
   <g id="text_11">
    <text style="font: 700 20px 'DejaVu Sans', 'Bitstream Vera Sans', 'Computer Modern Sans Serif', 'Lucida Grande', 'Verdana', 'Geneva', 'Lucid', 'Arial', 'Helvetica', 'Avant Garde', sans-serif; text-anchor: start" x="1177.035641" y="328.446631" transform="rotate(-0 1177.035641 328.446631)">SEQ1 : SMN1</text>
   </g>
   <g id="patch_37">
    <path d="M 1243.187529 226.597296 
Q 1060.284627 318.032502 898.067879 441.069557 
" style="fill: none; stroke: #808080; stroke-linecap: round"/>
    <path d="M 906.859109 439.422054 
L 898.067879 441.069557 
L 902.024614 433.048071 
" style="fill: none; stroke: #808080; stroke-linecap: round"/>
   </g>
   <g id="text_12">
    <text style="font: 700 20px 'DejaVu Sans', 'Bitstream Vera Sans', 'Computer Modern Sans Serif', 'Lucida Grande', 'Verdana', 'Geneva', 'Lucid', 'Arial', 'Helvetica', 'Avant Garde', sans-serif; text-anchor: start" x="1177.035641" y="218.986822" transform="rotate(-0 1177.035641 218.986822)">Kozak_sequence</text>
   </g>
   <g id="patch_38">
    <path d="M 1240.721052 163.789177 
Q 1037.959268 277.509948 860.723138 426.546582 
" style="fill: none; stroke: #808080; stroke-linecap: round"/>
    <path d="M 869.420454 424.459312 
L 860.723138 426.546582 
L 864.271712 418.336367 
" style="fill: none; stroke: #808080; stroke-linecap: round"/>
   </g>
   <g id="text_13">
    <text style="font: 700 20px 'DejaVu Sans', 'Bitstream Vera Sans', 'Computer Modern Sans Serif', 'Lucida Grande', 'Verdana', 'Geneva', 'Lucid', 'Arial', 'Helvetica', 'Avant Garde', sans-serif; text-anchor: start" x="1177.035641" y="156.653551" transform="rotate(-0 1177.035641 156.653551)">Promoter : TBG</text>
   </g>
   <g id="patch_39">
    <path d="M 1190.573515 58.589687 
Q 983.242665 220.517013 811.045489 418.149471 
" style="fill: none; stroke: #808080; stroke-linecap: round"/>
    <path d="M 819.316705 414.745504 
L 811.045489 418.149471 
L 813.285045 409.490119 
" style="fill: none; stroke: #808080; stroke-linecap: round"/>
   </g>
   <g id="text_14">
    <text style="font: 700 20px 'DejaVu Sans', 'Bitstream Vera Sans', 'Computer Modern Sans Serif', 'Lucida Grande', 'Verdana', 'Geneva', 'Lucid', 'Arial', 'Helvetica', 'Avant Garde', sans-serif; text-anchor: start" x="1177.035641" y="51.196875" transform="rotate(-0 1177.035641 51.196875)">5`ITR</text>
   </g>
   <g id="text_15">
    <g id="patch_40">
     <path d="M 652.311094 694.107365 
L 945.457656 694.107365 
L 945.457656 581.309927 
L 652.311094 581.309927 
z
" style="fill: #ffffff; stroke: #ffffff; stroke-linejoin: miter"/>
    </g>
    <text style="font: 700 22px 'DejaVu Sans', 'Bitstream Vera Sans', 'Computer Modern Sans Serif', 'Lucida Grande', 'Verdana', 'Geneva', 'Lucid', 'Arial', 'Helvetica', 'Avant Garde', sans-serif" transform="translate(760.994531 606.82649)">ssAAV</text>
    <text style="font: 700 22px 'DejaVu Sans', 'Bitstream Vera Sans', 'Computer Modern Sans Serif', 'Lucida Grande', 'Verdana', 'Geneva', 'Lucid', 'Arial', 'Helvetica', 'Avant Garde', sans-serif" transform="translate(731.316875 631.461677)">expression</text>
    <text style="font: 700 22px 'DejaVu Sans', 'Bitstream Vera Sans', 'Computer Modern Sans Serif', 'Lucida Grande', 'Verdana', 'Geneva', 'Lucid', 'Arial', 'Helvetica', 'Avant Garde', sans-serif" transform="translate(661.111094 656.096865)"> Plasmid size: 8780nc </text>
    <text style="font: 700 22px 'DejaVu Sans', 'Bitstream Vera Sans', 'Computer Modern Sans Serif', 'Lucida Grande', 'Verdana', 'Geneva', 'Lucid', 'Arial', 'Helvetica', 'Avant Garde', sans-serif" transform="translate(677.238125 680.732052)"> Insert size: 6161nc</text>
   </g>
   <g id="text_16">
    <g id="patch_41">
     <path d="M 27.2 1309.560521 
L 1570.56875 1309.560521 
L 1570.56875 1270.496771 
L 27.2 1270.496771 
z
" style="fill: #ffffff; stroke: #ffffff; stroke-linejoin: miter"/>
    </g>
    <text style="fill: #ff0000; font: 700 22px 'DejaVu Sans', 'Bitstream Vera Sans', 'Computer Modern Sans Serif', 'Lucida Grande', 'Verdana', 'Geneva', 'Lucid', 'Arial', 'Helvetica', 'Avant Garde', sans-serif; text-anchor: middle" x="798.884375" y="1296.013334" transform="rotate(-0 798.884375 1296.013334)">The insert sequence of the vector is not optimal for this vector type. The optimal insert for this vector should be &lt; 5000nc</text>
   </g>
  </g>
 </g>
 <defs>
  <clipPath id="p9e063cdff1">
   <rect x="527.084375" y="365.908646" width="543.6" height="543.6"/>
  </clipPath>
 </defs>
</svg>
